<mxfile host="app.diagrams.net" modified="2023-08-09T07:40:11.949Z" agent="Mozilla/5.0 (Macintosh; Intel Mac OS X 10_15_7) AppleWebKit/537.36 (KHTML, like Gecko) Chrome/115.0.0.0 Safari/537.36" etag="DBhOaTQSNkwHnBXBaNZM" version="21.6.1" type="github">
  <diagram id="es14_rfdbNgEbXmRxW6r" name="페이지-1">
    <mxGraphModel dx="936" dy="871" grid="1" gridSize="10" guides="1" tooltips="1" connect="1" arrows="1" fold="1" page="1" pageScale="1" pageWidth="827" pageHeight="1169" math="0" shadow="0">
      <root>
        <mxCell id="0" />
        <mxCell id="1" parent="0" />
        <mxCell id="SVIf_Yv8dDFxY-8pvKm4-9" style="edgeStyle=orthogonalEdgeStyle;rounded=0;orthogonalLoop=1;jettySize=auto;html=1;" parent="1" source="SVIf_Yv8dDFxY-8pvKm4-1" target="SVIf_Yv8dDFxY-8pvKm4-5" edge="1">
          <mxGeometry relative="1" as="geometry" />
        </mxCell>
        <mxCell id="SVIf_Yv8dDFxY-8pvKm4-1" value="" style="sketch=0;points=[[0,0,0],[0.25,0,0],[0.5,0,0],[0.75,0,0],[1,0,0],[0,1,0],[0.25,1,0],[0.5,1,0],[0.75,1,0],[1,1,0],[0,0.25,0],[0,0.5,0],[0,0.75,0],[1,0.25,0],[1,0.5,0],[1,0.75,0]];outlineConnect=0;fontColor=#232F3E;gradientColor=#945DF2;gradientDirection=north;fillColor=#5A30B5;strokeColor=#ffffff;dashed=0;verticalLabelPosition=bottom;verticalAlign=top;align=center;html=1;fontSize=12;fontStyle=0;aspect=fixed;shape=mxgraph.aws4.resourceIcon;resIcon=mxgraph.aws4.route_53;" parent="1" vertex="1">
          <mxGeometry x="150" y="150" width="80" height="80" as="geometry" />
        </mxCell>
        <mxCell id="SVIf_Yv8dDFxY-8pvKm4-2" value="VPC" style="points=[[0,0],[0.25,0],[0.5,0],[0.75,0],[1,0],[1,0.25],[1,0.5],[1,0.75],[1,1],[0.75,1],[0.5,1],[0.25,1],[0,1],[0,0.75],[0,0.5],[0,0.25]];outlineConnect=0;gradientColor=none;html=1;whiteSpace=wrap;fontSize=12;fontStyle=0;container=1;pointerEvents=0;collapsible=0;recursiveResize=0;shape=mxgraph.aws4.group;grIcon=mxgraph.aws4.group_vpc;strokeColor=#248814;fillColor=none;verticalAlign=top;align=left;spacingLeft=30;fontColor=#AAB7B8;dashed=0;" parent="1" vertex="1">
          <mxGeometry x="43" y="340" width="400" height="450" as="geometry" />
        </mxCell>
        <mxCell id="SVIf_Yv8dDFxY-8pvKm4-10" style="edgeStyle=orthogonalEdgeStyle;rounded=0;orthogonalLoop=1;jettySize=auto;html=1;" parent="SVIf_Yv8dDFxY-8pvKm4-2" source="SVIf_Yv8dDFxY-8pvKm4-5" target="SVIf_Yv8dDFxY-8pvKm4-6" edge="1">
          <mxGeometry relative="1" as="geometry" />
        </mxCell>
        <mxCell id="SVIf_Yv8dDFxY-8pvKm4-5" value="" style="sketch=0;outlineConnect=0;fontColor=#232F3E;gradientColor=none;fillColor=#D45B07;strokeColor=none;dashed=0;verticalLabelPosition=bottom;verticalAlign=top;align=center;html=1;fontSize=12;fontStyle=0;aspect=fixed;pointerEvents=1;shape=mxgraph.aws4.elastic_ip_address;" parent="SVIf_Yv8dDFxY-8pvKm4-2" vertex="1">
          <mxGeometry x="175" y="90" width="48" height="20" as="geometry" />
        </mxCell>
        <mxCell id="SVIf_Yv8dDFxY-8pvKm4-6" value="" style="sketch=0;points=[[0,0,0],[0.25,0,0],[0.5,0,0],[0.75,0,0],[1,0,0],[0,1,0],[0.25,1,0],[0.5,1,0],[0.75,1,0],[1,1,0],[0,0.25,0],[0,0.5,0],[0,0.75,0],[1,0.25,0],[1,0.5,0],[1,0.75,0]];outlineConnect=0;fontColor=#232F3E;gradientColor=#F78E04;gradientDirection=north;fillColor=#D05C17;strokeColor=#ffffff;dashed=0;verticalLabelPosition=bottom;verticalAlign=top;align=center;html=1;fontSize=12;fontStyle=0;aspect=fixed;shape=mxgraph.aws4.resourceIcon;resIcon=mxgraph.aws4.ec2;" parent="SVIf_Yv8dDFxY-8pvKm4-2" vertex="1">
          <mxGeometry x="160" y="200" width="78" height="78" as="geometry" />
        </mxCell>
        <mxCell id="SVIf_Yv8dDFxY-8pvKm4-12" value="Elastic IP&lt;br&gt;Address" style="text;html=1;strokeColor=none;fillColor=none;align=left;verticalAlign=middle;whiteSpace=wrap;rounded=0;" parent="SVIf_Yv8dDFxY-8pvKm4-2" vertex="1">
          <mxGeometry x="252" y="85" width="60" height="30" as="geometry" />
        </mxCell>
        <mxCell id="SVIf_Yv8dDFxY-8pvKm4-14" value="EC2" style="text;html=1;strokeColor=none;fillColor=none;align=left;verticalAlign=middle;whiteSpace=wrap;rounded=0;" parent="SVIf_Yv8dDFxY-8pvKm4-2" vertex="1">
          <mxGeometry x="250" y="224" width="60" height="30" as="geometry" />
        </mxCell>
        <mxCell id="SVIf_Yv8dDFxY-8pvKm4-17" value="" style="shape=image;html=1;verticalAlign=top;verticalLabelPosition=bottom;labelBackgroundColor=#ffffff;imageAspect=0;aspect=fixed;image=https://cdn1.iconfinder.com/data/icons/unicons-line-vol-3/24/docker-128.png" parent="SVIf_Yv8dDFxY-8pvKm4-2" vertex="1">
          <mxGeometry x="30" y="300" width="100" height="100" as="geometry" />
        </mxCell>
        <mxCell id="SVIf_Yv8dDFxY-8pvKm4-18" value="" style="shape=image;html=1;verticalAlign=top;verticalLabelPosition=bottom;labelBackgroundColor=#ffffff;imageAspect=0;aspect=fixed;image=https://cdn1.iconfinder.com/data/icons/unicons-line-vol-3/24/docker-128.png" parent="SVIf_Yv8dDFxY-8pvKm4-2" vertex="1">
          <mxGeometry x="149" y="300" width="100" height="100" as="geometry" />
        </mxCell>
        <mxCell id="SVIf_Yv8dDFxY-8pvKm4-19" value="" style="shape=image;html=1;verticalAlign=top;verticalLabelPosition=bottom;labelBackgroundColor=#ffffff;imageAspect=0;aspect=fixed;image=https://cdn1.iconfinder.com/data/icons/unicons-line-vol-3/24/docker-128.png" parent="SVIf_Yv8dDFxY-8pvKm4-2" vertex="1">
          <mxGeometry x="270" y="300" width="100" height="100" as="geometry" />
        </mxCell>
        <mxCell id="SVIf_Yv8dDFxY-8pvKm4-20" value="Next.JS" style="text;html=1;strokeColor=none;fillColor=none;align=center;verticalAlign=middle;whiteSpace=wrap;rounded=0;" parent="SVIf_Yv8dDFxY-8pvKm4-2" vertex="1">
          <mxGeometry x="50" y="390" width="60" height="30" as="geometry" />
        </mxCell>
        <mxCell id="SVIf_Yv8dDFxY-8pvKm4-21" value="Nest.JS" style="text;html=1;strokeColor=none;fillColor=none;align=center;verticalAlign=middle;whiteSpace=wrap;rounded=0;" parent="SVIf_Yv8dDFxY-8pvKm4-2" vertex="1">
          <mxGeometry x="170" y="390" width="60" height="30" as="geometry" />
        </mxCell>
        <mxCell id="SVIf_Yv8dDFxY-8pvKm4-22" value="Mongo DB" style="text;html=1;strokeColor=none;fillColor=none;align=center;verticalAlign=middle;whiteSpace=wrap;rounded=0;" parent="SVIf_Yv8dDFxY-8pvKm4-2" vertex="1">
          <mxGeometry x="290" y="390" width="60" height="30" as="geometry" />
        </mxCell>
        <mxCell id="SVIf_Yv8dDFxY-8pvKm4-13" value="Route&amp;nbsp; 53" style="text;html=1;strokeColor=none;fillColor=none;align=left;verticalAlign=middle;whiteSpace=wrap;rounded=0;" parent="1" vertex="1">
          <mxGeometry x="305" y="244" width="60" height="30" as="geometry" />
        </mxCell>
        <mxCell id="SVIf_Yv8dDFxY-8pvKm4-30" value="" style="edgeStyle=orthogonalEdgeStyle;rounded=0;orthogonalLoop=1;jettySize=auto;html=1;" parent="1" source="SVIf_Yv8dDFxY-8pvKm4-24" target="SVIf_Yv8dDFxY-8pvKm4-29" edge="1">
          <mxGeometry relative="1" as="geometry" />
        </mxCell>
        <mxCell id="SVIf_Yv8dDFxY-8pvKm4-24" value="&lt;h1&gt;t3.micro&lt;/h1&gt;&lt;p&gt;- EBS : Free-tier (30GB)&lt;br&gt;- 시간당 : 0.0136USD&lt;br&gt;&lt;span style=&quot;background-color: initial;&quot;&gt;- 월 730 시간 기준 : 9.928USD (약 13,000원)&lt;br&gt;&lt;/span&gt;&lt;span style=&quot;background-color: initial;&quot;&gt;- 일부 네트워크 비용 : 4 ~ 7,000 원&lt;/span&gt;&lt;/p&gt;" style="text;html=1;strokeColor=none;fillColor=none;spacing=5;spacingTop=-20;whiteSpace=wrap;overflow=hidden;rounded=0;" parent="1" vertex="1">
          <mxGeometry x="472" y="540" width="241" height="120" as="geometry" />
        </mxCell>
        <mxCell id="SVIf_Yv8dDFxY-8pvKm4-25" value="&lt;h1&gt;Domain 구매 비용&lt;/h1&gt;&lt;p&gt;Lorem ipsum dolor sit amet, consectetur adipisicing elit, sed do eiusmod tempor incididunt ut labore et dolore magna aliqua.&lt;/p&gt;" style="text;html=1;strokeColor=none;fillColor=none;spacing=5;spacingTop=-20;whiteSpace=wrap;overflow=hidden;rounded=0;" parent="1" vertex="1">
          <mxGeometry x="472" y="30" width="280" height="120" as="geometry" />
        </mxCell>
        <mxCell id="SVIf_Yv8dDFxY-8pvKm4-26" value="&lt;h1&gt;Free-tier에서 한개 사용 무료&lt;/h1&gt;&lt;p&gt;나중에 재확인&lt;/p&gt;" style="text;html=1;strokeColor=none;fillColor=none;spacing=5;spacingTop=-20;whiteSpace=wrap;overflow=hidden;rounded=0;" parent="1" vertex="1">
          <mxGeometry x="472" y="390" width="311" height="120" as="geometry" />
        </mxCell>
        <mxCell id="SVIf_Yv8dDFxY-8pvKm4-27" value="&lt;h1&gt;Hosted Zone&lt;/h1&gt;&lt;p&gt;- 월 : 0.5 달러 (6 ~ 700 원)&lt;br&gt;- 트래픽이 엄청 많아지면, DNS Query 요금이 발생할지도&lt;br&gt;&lt;/p&gt;" style="text;html=1;strokeColor=none;fillColor=none;spacing=5;spacingTop=-20;whiteSpace=wrap;overflow=hidden;rounded=0;" parent="1" vertex="1">
          <mxGeometry x="472" y="199" width="291" height="120" as="geometry" />
        </mxCell>
        <mxCell id="SVIf_Yv8dDFxY-8pvKm4-29" value="&lt;h1&gt;t2.micro&lt;/h1&gt;&lt;p&gt;Front 쪽을 Vercel, S3, GitHub pages 등으로 배포하고,&lt;br&gt;&lt;span style=&quot;background-color: initial;&quot;&gt;Server 단의 Resource 를 free-tier 거로 하는 방법도 있을 듯&lt;/span&gt;&lt;/p&gt;" style="text;html=1;strokeColor=none;fillColor=none;spacing=5;spacingTop=-20;whiteSpace=wrap;overflow=hidden;rounded=0;" parent="1" vertex="1">
          <mxGeometry x="472" y="740" width="311" height="120" as="geometry" />
        </mxCell>
      </root>
    </mxGraphModel>
  </diagram>
</mxfile>
